<svg width="115" height="56" viewBox="0 0 115 56" fill="none" xmlns="http://www.w3.org/2000/svg">
<path d="M65.5503 15.4884V15.4641H64.4632C63.3438 16.3002 62.6541 17.5373 62.2351 18.633H63.3529C63.7681 17.5476 64.4495 16.324 65.5503 15.4884Z" fill="white"/>
<path d="M62.0837 30.453L62.742 21.0102C62.7484 20.955 62.7811 20.6947 62.8616 20.3096H61.7438C61.6632 20.6947 61.6304 20.9548 61.6242 21.0102L60.9659 30.453C60.9338 30.8716 60.9506 31.4223 61.2106 31.7033C61.4021 31.9101 61.7544 32.0063 62.3195 32.0063H63.4373C62.8722 32.0063 62.5199 31.9099 62.3284 31.7033C62.0685 31.4223 62.0516 30.8716 62.0837 30.453Z" fill="white"/>
<path d="M47.4177 18.2681H46.2999C45.5365 18.7989 44.8895 19.5034 44.3853 20.3255H45.5031C46.0073 19.5034 46.6543 18.7989 47.4177 18.2681Z" fill="white"/>
<path d="M48.3546 7.83663C48.3546 7.20606 48.8676 6.69309 49.4982 6.69309H51.7181C51.7264 6.69309 51.7344 6.69421 51.7426 6.69432C51.7294 6.07515 51.2226 5.57526 50.6003 5.57526H48.3804C47.7498 5.57526 47.2368 6.08823 47.2368 6.7188V16.5913H48.3546V7.83663Z" fill="white"/>
<path d="M67.2268 15.4641V18.633H70.5373C70.1172 17.5357 69.4277 16.2973 68.3133 15.4641H67.2268Z" fill="#FFA6BB"/>
<path d="M65.5356 3.75688C65.5356 3.22625 65.9672 2.79465 66.4979 2.79465H68.3591V2.63905C68.3591 2.10841 67.9275 1.67682 67.397 1.67682H65.3801C64.8493 1.67682 64.4177 2.10853 64.4177 2.63905V13.7873H65.5356V3.75688Z" fill="white"/>
<path d="M50.3286 20.3255H54.5386C54.0342 19.5034 53.3871 18.7989 52.6239 18.2681H50.3286V20.3255Z" fill="#FFA6BB"/>
<path d="M71.1529 21.0108C71.1465 20.9572 71.113 20.6965 71.031 20.3096H62.8617C62.7811 20.6947 62.7484 20.9548 62.7421 21.0102L62.0838 30.453C62.0517 30.8716 62.0685 31.4223 62.3285 31.7033C62.52 31.9101 62.8723 32.0063 63.4374 32.0063H70.4573C71.0223 32.0063 71.3747 31.9101 71.5662 31.7033C71.8262 31.4225 71.843 30.8716 71.8113 30.459L71.1529 21.0108Z" fill="#BA82AA"/>
<path d="M63.353 18.6329H65.5502V15.4883C64.4495 16.3239 63.7681 17.5475 63.353 18.6329Z" fill="#FFA6BB"/>
<path d="M65.5356 3.75688V13.7873H68.3593V2.79465H66.4981C65.9674 2.79465 65.5356 3.22635 65.5356 3.75688Z" fill="#BA82AA"/>
<path d="M73.4836 30.3363C73.4836 30.3363 72.823 20.8585 72.8221 20.8494C72.8044 20.6783 72.4052 17.0664 70.0288 14.7313C70.0332 14.6966 70.036 14.6615 70.036 14.6257V2.63898C70.036 1.1839 68.8522 0 67.3971 0H65.3802C63.925 0 62.7411 1.1839 62.7411 2.63898V14.6257C62.7411 14.6615 62.7441 14.6965 62.7485 14.7311C60.3718 17.0663 59.9727 20.6785 59.955 20.8494C59.9541 20.8584 59.294 30.3302 59.294 30.3302C59.2106 31.4149 59.4415 32.2601 59.9806 32.8423C60.759 33.6829 61.9338 33.6829 62.3198 33.6829H70.4575C70.8435 33.6829 72.0184 33.6829 72.7967 32.8423C73.3356 32.2602 73.5666 31.415 73.4836 30.3363ZM70.5374 18.6329H67.227V15.4641H68.3136C69.428 16.2971 70.1174 17.5357 70.5374 18.6329ZM64.4178 2.63898C64.4178 2.10834 64.8494 1.67675 65.3801 1.67675H67.3971C67.9276 1.67675 68.3592 2.10846 68.3592 2.63898V2.79458V13.7874H65.5356H64.4178V2.63898ZM64.4633 15.4641H65.5503V15.4884V18.6329H63.3531H62.2353C62.6542 17.5372 63.3439 16.3001 64.4633 15.4641ZM71.5662 31.7031C71.3747 31.9099 71.0224 32.0061 70.4573 32.0061H63.4374H62.3196C61.7545 32.0061 61.4022 31.9098 61.2107 31.7031C60.9507 31.4222 60.9338 30.8714 60.966 30.4528L61.6243 21.01C61.6307 20.9548 61.6634 20.6946 61.7439 20.3095H62.8617H71.0311C71.1129 20.6963 71.1466 20.9571 71.1529 21.0107L71.8114 30.4587C71.8431 30.8715 71.8263 31.4223 71.5662 31.7031Z" fill="#7F3960"/>
<path d="M49.4983 6.69308C48.8677 6.69308 48.3547 7.20606 48.3547 7.83663V16.5913H51.744V6.71879C51.744 6.71052 51.7429 6.70259 51.7428 6.69431C51.7346 6.6942 51.7266 6.69308 51.7183 6.69308H49.4983Z" fill="#BA82AA"/>
<path d="M45.5032 20.3255H48.652V18.2681H47.4178C46.6544 18.7989 46.0074 19.5034 45.5032 20.3255Z" fill="#FFA6BB"/>
<path d="M46.4618 31.3772C46.4618 31.2971 46.4774 31.2181 46.5079 31.1424C46.6292 30.8422 46.5668 30.4988 46.3474 30.2606C45.0429 28.8433 44.2946 26.8289 44.2946 24.7341C44.2946 23.7823 44.4467 22.8585 44.7291 22.0022H43.6113C43.3289 22.8585 43.1768 23.7824 43.1768 24.7341C43.1768 26.8289 43.9249 28.8433 45.2295 30.2606C45.4489 30.4988 45.5114 30.8422 45.3901 31.1424C45.3596 31.2181 45.344 31.297 45.344 31.3772C45.344 31.724 45.6262 32.006 45.9729 32.006H47.0907C46.744 32.0062 46.4618 31.724 46.4618 31.3772Z" fill="white"/>
<path d="M53.5801 31.3772C53.5801 31.2971 53.5645 31.2181 53.5339 31.1422C53.4126 30.8419 53.4752 30.4988 53.6945 30.2606C54.999 28.8433 55.7472 26.8289 55.7472 24.7341C55.7472 23.7823 55.5951 22.8585 55.3127 22.0022H50.3287V29.3247C50.3287 29.8816 49.8677 30.1631 49.4904 30.1631C49.0274 30.1631 48.652 29.7877 48.652 29.3247V22.0022H44.7292C44.4468 22.8585 44.2947 23.7824 44.2947 24.7341C44.2947 26.8289 45.0428 28.8433 46.3475 30.2606C46.5668 30.4988 46.6293 30.8422 46.508 31.1424C46.4775 31.2181 46.4619 31.297 46.4619 31.3772C46.4619 31.724 46.7441 32.006 47.0908 32.006H52.9511C53.2978 32.0062 53.5801 31.724 53.5801 31.3772Z" fill="#FFA6BB"/>
<path d="M56.7002 20.9195C56.685 20.8694 55.4393 17.9672 53.4206 16.7842V6.71879C53.4206 5.16366 52.1555 3.8985 50.6004 3.8985H48.3804C46.8252 3.8985 45.5601 5.16366 45.5601 6.71879V16.7464C43.2401 18.1206 42.2389 20.8694 42.2237 20.9194C41.7549 22.0974 41.5 23.395 41.5 24.7342C41.5 27.116 42.2748 29.339 43.691 31.0472C43.6751 31.1561 43.6673 31.2663 43.6673 31.3773C43.6673 32.6487 44.7016 33.6829 45.9729 33.6829H52.951C54.2223 33.6829 55.2567 32.6486 55.2567 31.3773C55.2567 31.2663 55.2488 31.1561 55.2329 31.0472C56.649 29.339 57.4239 27.116 57.4239 24.7342C57.4238 23.395 57.169 22.0975 56.7002 20.9195ZM52.6238 18.2681C53.3871 18.7989 54.0343 19.5034 54.5385 20.3255H50.3286V18.2681H52.6238ZM47.2367 6.71879C47.2367 6.08822 47.7497 5.57525 48.3803 5.57525H50.6002C51.2225 5.57525 51.7293 6.07514 51.7425 6.69431C51.7427 6.70258 51.7437 6.71052 51.7437 6.71879V16.5913H48.3544H47.2366V6.71879H47.2367ZM46.2999 18.2681H47.4177H48.6519V20.3255H45.5031H44.3852C44.8895 19.5034 45.5365 18.7989 46.2999 18.2681ZM45.9728 32.0062C45.6259 32.0062 45.3439 31.724 45.3439 31.3773C45.3439 31.2973 45.3594 31.2182 45.3899 31.1425C45.5112 30.8423 45.4489 30.4989 45.2294 30.2607C43.9249 28.8434 43.1766 26.8291 43.1766 24.7342C43.1766 23.7824 43.3288 22.8586 43.6111 22.0024H44.729H48.6518V29.3248C48.6518 29.7878 49.0272 30.1632 49.4902 30.1632C49.8675 30.1632 50.3285 29.8817 50.3285 29.3248V22.0023H55.3124C55.5946 22.8585 55.7469 23.7824 55.7469 24.7341C55.7469 26.8289 54.9987 28.8433 53.6942 30.2606C53.4749 30.4988 53.4124 30.842 53.5336 31.1422C53.5642 31.2181 53.5798 31.2971 53.5798 31.3772C53.5798 31.724 53.2976 32.0061 52.9507 32.0061H47.0906H45.9728V32.0062Z" fill="#7F3960"/>
<path d="M0.48 49.683V49.431L1.584 49.251V40.515L0.48 40.347V40.083H4.008V40.347L2.904 40.515V44.451H7.464V40.515L6.348 40.347V40.083H9.9V40.347L8.784 40.515V49.251L9.9 49.431V49.683H6.348V49.431L7.464 49.251V44.751H2.904V49.251L4.008 49.431V49.683H0.48ZM14.0068 49.803C13.4308 49.803 12.9068 49.671 12.4348 49.407C11.9628 49.135 11.5868 48.755 11.3068 48.267C11.0348 47.771 10.8988 47.207 10.8988 46.575C10.8988 45.943 11.0348 45.383 11.3068 44.895C11.5868 44.407 11.9628 44.031 12.4348 43.767C12.9068 43.495 13.4308 43.359 14.0068 43.359C14.5828 43.359 15.1068 43.495 15.5788 43.767C16.0508 44.031 16.4228 44.407 16.6948 44.895C16.9748 45.383 17.1148 45.943 17.1148 46.575C17.1148 47.207 16.9748 47.771 16.6948 48.267C16.4228 48.755 16.0508 49.135 15.5788 49.407C15.1068 49.671 14.5828 49.803 14.0068 49.803ZM14.0068 49.539C14.5988 49.539 15.0428 49.323 15.3388 48.891C15.6428 48.459 15.7948 47.887 15.7948 47.175V45.975C15.7948 45.263 15.6428 44.695 15.3388 44.271C15.0428 43.839 14.5988 43.623 14.0068 43.623C13.4148 43.623 12.9668 43.839 12.6628 44.271C12.3668 44.695 12.2188 45.263 12.2188 45.975V47.175C12.2188 47.887 12.3668 48.459 12.6628 48.891C12.9668 49.323 13.4148 49.539 14.0068 49.539ZM17.949 49.683V49.443L18.789 49.323V43.827L17.949 43.707V43.467H23.193L23.373 45.747H23.037L21.981 43.767H19.989V49.323L21.069 49.443V49.683H17.949ZM25.329 49.683V49.443L26.289 49.323V43.767H25.257L24.213 45.747H23.877L24.057 43.467H29.721L29.901 45.747H29.565L28.509 43.767H27.489V49.323L28.449 49.443V49.683H25.329ZM33.8363 49.803C33.2443 49.803 32.7083 49.671 32.2283 49.407C31.7483 49.135 31.3683 48.755 31.0883 48.267C30.8083 47.779 30.6683 47.215 30.6683 46.575C30.6683 45.935 30.8043 45.375 31.0763 44.895C31.3563 44.407 31.7283 44.031 32.1923 43.767C32.6643 43.495 33.1883 43.359 33.7643 43.359C34.2683 43.359 34.7203 43.471 35.1203 43.695C35.5203 43.919 35.8323 44.231 36.0563 44.631C36.2803 45.023 36.3963 45.475 36.4043 45.987H31.9883V47.175C31.9883 47.879 32.1443 48.451 32.4563 48.891C32.7763 49.323 33.2363 49.539 33.8363 49.539C34.3883 49.539 34.8763 49.383 35.3003 49.071C35.7243 48.759 35.9843 48.355 36.0803 47.859H36.3563C36.2443 48.451 35.9603 48.923 35.5043 49.275C35.0483 49.627 34.4923 49.803 33.8363 49.803ZM35.0843 45.687C35.0843 44.991 34.9763 44.475 34.7603 44.139C34.5443 43.795 34.2083 43.623 33.7523 43.623C33.2163 43.623 32.8003 43.811 32.5043 44.187C32.2083 44.563 32.0403 45.063 32.0003 45.687H35.0843ZM37.2029 49.443L38.0429 49.323V43.827L37.2029 43.707V43.467H40.4909C41.3149 43.467 41.9029 43.583 42.2549 43.815C42.6069 44.039 42.7829 44.407 42.7829 44.919C42.7829 45.663 42.3109 46.139 41.3669 46.347V46.383C42.5829 46.551 43.1909 47.091 43.1909 48.003C43.1909 48.563 42.9869 48.983 42.5789 49.263C42.1709 49.543 41.6029 49.683 40.8749 49.683H37.2029V49.443ZM40.2029 46.275C40.6189 46.275 40.9349 46.167 41.1509 45.951C41.3749 45.735 41.4869 45.411 41.4869 44.979V44.931C41.4869 44.539 41.3749 44.247 41.1509 44.055C40.9269 43.863 40.5869 43.767 40.1309 43.767H39.2429V46.275H40.2029ZM40.5149 49.383C40.9549 49.383 41.2949 49.267 41.5349 49.035C41.7749 48.803 41.8949 48.463 41.8949 48.015V47.931C41.8949 47.475 41.7749 47.135 41.5349 46.911C41.3029 46.679 40.9629 46.563 40.5149 46.563H39.2429V49.383H40.5149ZM45.9446 49.803C45.4326 49.803 45.0126 49.671 44.6846 49.407C44.3566 49.135 44.1926 48.735 44.1926 48.207C44.1926 47.455 44.5086 46.923 45.1406 46.611C45.7726 46.291 46.5046 46.131 47.3366 46.131H48.1406V45.207C48.1406 44.791 48.0926 44.471 47.9966 44.247C47.9086 44.015 47.7686 43.855 47.5766 43.767C47.3846 43.671 47.1246 43.623 46.7966 43.623C46.4206 43.623 46.1406 43.699 45.9566 43.851C45.7726 43.995 45.6806 44.191 45.6806 44.439C45.6806 44.671 45.7926 44.823 46.0166 44.895C46.0166 45.095 45.9406 45.271 45.7886 45.423C45.6366 45.575 45.4566 45.651 45.2486 45.651C45.0246 45.651 44.8446 45.591 44.7086 45.471C44.5726 45.343 44.5046 45.151 44.5046 44.895C44.5046 44.431 44.7366 44.059 45.2006 43.779C45.6646 43.499 46.2446 43.359 46.9406 43.359C48.5406 43.359 49.3406 44.055 49.3406 45.447V48.879C49.3406 49.055 49.3766 49.191 49.4486 49.287C49.5286 49.375 49.6406 49.419 49.7846 49.419C49.9206 49.419 50.0286 49.375 50.1086 49.287C50.1886 49.191 50.2286 49.063 50.2286 48.903H50.4806C50.4806 49.183 50.3886 49.403 50.2046 49.563C50.0286 49.723 49.7806 49.803 49.4606 49.803C49.0926 49.803 48.7806 49.699 48.5246 49.491C48.2766 49.275 48.1486 48.943 48.1406 48.495C47.9486 48.903 47.6526 49.223 47.2526 49.455C46.8606 49.687 46.4246 49.803 45.9446 49.803ZM46.6046 49.275C46.8206 49.275 47.0406 49.211 47.2646 49.083C47.4966 48.955 47.6926 48.771 47.8526 48.531C48.0126 48.283 48.1086 47.987 48.1406 47.643V46.395H47.3366C46.6806 46.395 46.1886 46.543 45.8606 46.839C45.5406 47.127 45.3806 47.535 45.3806 48.063C45.3806 48.503 45.4846 48.815 45.6926 48.999C45.9006 49.183 46.2046 49.275 46.6046 49.275ZM51.4812 49.803C51.2812 49.803 51.0772 49.759 50.8692 49.671C50.6612 49.575 50.4812 49.439 50.3292 49.263L50.5092 49.083C50.6532 49.227 50.7932 49.299 50.9292 49.299C51.0492 49.299 51.1372 49.255 51.1932 49.167C51.2572 49.079 51.3172 48.903 51.3732 48.639L51.5052 47.943C51.5772 47.551 51.7092 47.259 51.9012 47.067C52.0932 46.875 52.4052 46.747 52.8372 46.683V46.623C52.4132 46.551 52.0652 46.395 51.7932 46.155C51.5292 45.915 51.3972 45.563 51.3972 45.099C51.3972 44.563 51.5772 44.159 51.9372 43.887C52.2972 43.607 52.8812 43.467 53.6892 43.467H57.1212V43.719L56.2572 43.839V49.311L57.1212 49.443V49.683H54.1932V49.443L55.0572 49.311V46.827H53.9532C53.6092 46.827 53.3412 46.903 53.1492 47.055C52.9652 47.207 52.8452 47.459 52.7892 47.811L52.6092 48.831C52.5452 49.183 52.4292 49.435 52.2612 49.587C52.0932 49.731 51.8332 49.803 51.4812 49.803ZM55.0572 46.527V43.767H54.0492C53.5852 43.767 53.2412 43.871 53.0172 44.079C52.8012 44.287 52.6932 44.619 52.6932 45.075V45.231C52.6932 45.679 52.8052 46.007 53.0292 46.215C53.2532 46.423 53.5612 46.527 53.9532 46.527H55.0572ZM63.3044 49.803C62.4164 49.803 61.7684 49.679 61.3604 49.431C60.9604 49.175 60.7604 48.855 60.7604 48.471C60.7604 48.231 60.8284 48.039 60.9644 47.895C61.1084 47.743 61.2964 47.667 61.5284 47.667C61.6804 47.667 61.8164 47.707 61.9364 47.787C62.0564 47.867 62.1404 47.979 62.1884 48.123C62.0524 48.283 61.9844 48.451 61.9844 48.627C61.9844 48.899 62.1044 49.119 62.3444 49.287C62.5844 49.455 62.9044 49.539 63.3044 49.539C63.8884 49.539 64.3324 49.327 64.6364 48.903C64.9404 48.479 65.0924 47.903 65.0924 47.175V46.623H62.3324V46.323H65.0924V45.975C65.0924 45.223 64.9364 44.643 64.6244 44.235C64.3204 43.819 63.8804 43.611 63.3044 43.611C62.7524 43.611 62.2484 43.755 61.7924 44.043L61.1204 45.639H60.8684L61.0004 43.359L61.7684 43.731C62.2804 43.483 62.7924 43.359 63.3044 43.359C63.9124 43.359 64.4524 43.499 64.9244 43.779C65.3964 44.051 65.7604 44.431 66.0164 44.919C66.2804 45.407 66.4124 45.959 66.4124 46.575C66.4124 47.207 66.2804 47.767 66.0164 48.255C65.7604 48.743 65.3964 49.123 64.9244 49.395C64.4524 49.667 63.9124 49.803 63.3044 49.803ZM70.5498 49.803C69.9738 49.803 69.4498 49.671 68.9778 49.407C68.5058 49.135 68.1298 48.755 67.8498 48.267C67.5778 47.771 67.4418 47.207 67.4418 46.575C67.4418 45.911 67.5858 45.335 67.8738 44.847C68.1698 44.359 68.5538 43.991 69.0258 43.743C69.4978 43.487 70.0058 43.359 70.5498 43.359C71.0058 43.359 71.4218 43.439 71.7978 43.599C72.1738 43.751 72.4698 43.967 72.6858 44.247C72.9098 44.527 73.0218 44.843 73.0218 45.195C73.0218 45.459 72.9538 45.663 72.8178 45.807C72.6818 45.943 72.5018 46.011 72.2778 46.011C72.0618 46.011 71.8818 45.939 71.7378 45.795C71.5938 45.651 71.5218 45.471 71.5218 45.255C71.6418 45.175 71.7258 45.087 71.7738 44.991C71.8218 44.895 71.8458 44.775 71.8458 44.631C71.8458 44.335 71.7258 44.095 71.4858 43.911C71.2538 43.719 70.9418 43.623 70.5498 43.623C69.9738 43.623 69.5298 43.831 69.2178 44.247C68.9138 44.655 68.7618 45.231 68.7618 45.975V47.175C68.7618 47.887 68.9098 48.459 69.2058 48.891C69.5098 49.323 69.9578 49.539 70.5498 49.539C71.0938 49.539 71.5658 49.387 71.9658 49.083C72.3738 48.771 72.6258 48.363 72.7218 47.859H72.9978C72.8858 48.451 72.6058 48.923 72.1578 49.275C71.7178 49.627 71.1818 49.803 70.5498 49.803ZM75.1923 49.683V49.443L76.1523 49.323V43.767H75.1203L74.0763 45.747H73.7403L73.9203 43.467H79.5843L79.7643 45.747H79.4283L78.3723 43.767H77.3523V49.323L78.3123 49.443V49.683H75.1923ZM83.6996 49.803C83.1076 49.803 82.5716 49.671 82.0916 49.407C81.6116 49.135 81.2316 48.755 80.9516 48.267C80.6716 47.779 80.5316 47.215 80.5316 46.575C80.5316 45.935 80.6676 45.375 80.9396 44.895C81.2196 44.407 81.5916 44.031 82.0556 43.767C82.5276 43.495 83.0516 43.359 83.6276 43.359C84.1316 43.359 84.5836 43.471 84.9836 43.695C85.3836 43.919 85.6956 44.231 85.9196 44.631C86.1436 45.023 86.2596 45.475 86.2676 45.987H81.8516V47.175C81.8516 47.879 82.0076 48.451 82.3196 48.891C82.6396 49.323 83.0996 49.539 83.6996 49.539C84.2516 49.539 84.7396 49.383 85.1636 49.071C85.5876 48.759 85.8476 48.355 85.9436 47.859H86.2196C86.1076 48.451 85.8236 48.923 85.3676 49.275C84.9116 49.627 84.3556 49.803 83.6996 49.803ZM84.9476 45.687C84.9476 44.991 84.8396 44.475 84.6236 44.139C84.4076 43.795 84.0716 43.623 83.6156 43.623C83.0796 43.623 82.6636 43.811 82.3676 44.187C82.0716 44.563 81.9036 45.063 81.8636 45.687H84.9476ZM88.4462 49.683V49.443L89.4062 49.323V43.767H88.3742L87.3302 45.747H86.9942L87.1742 43.467H92.8382L93.0182 45.747H92.6822L91.6262 43.767H90.6062V49.323L91.5662 49.443V49.683H88.4462ZM93.5935 49.683V49.443L94.4335 49.323V43.827L93.5935 43.707V43.467H96.3535V43.707L95.6335 43.827V48.495L98.6695 44.067V43.827L97.9495 43.707V43.467H100.71V43.707L99.8695 43.827V49.323L100.71 49.443V49.683H97.9495V49.443L98.6695 49.323V44.571L95.6335 49.011V49.323L96.3535 49.443V49.683H93.5935ZM106.955 49.803C106.603 49.803 106.343 49.731 106.175 49.587C106.007 49.435 105.891 49.183 105.827 48.831L105.587 47.559C105.515 47.183 105.395 46.919 105.227 46.767C105.059 46.615 104.831 46.535 104.543 46.527H103.427V49.311L104.291 49.443V49.683H101.363V49.443L102.227 49.311V43.839L101.363 43.719V43.467H104.291V43.719L103.427 43.839V46.251H104.555C104.755 46.235 104.915 46.167 105.035 46.047C105.155 45.919 105.255 45.703 105.335 45.399L105.551 44.535C105.647 44.143 105.775 43.851 105.935 43.659C106.103 43.459 106.359 43.359 106.703 43.359C106.991 43.359 107.215 43.439 107.375 43.599C107.535 43.751 107.615 43.939 107.615 44.163C107.615 44.371 107.547 44.551 107.411 44.703C107.283 44.847 107.107 44.919 106.883 44.919C106.763 44.919 106.647 44.899 106.535 44.859C106.559 44.787 106.571 44.719 106.571 44.655C106.571 44.551 106.539 44.463 106.475 44.391C106.411 44.319 106.331 44.283 106.235 44.283C106.043 44.283 105.915 44.395 105.851 44.619L105.623 45.483C105.519 45.859 105.383 46.123 105.215 46.275C105.743 46.323 106.127 46.451 106.367 46.659C106.615 46.867 106.779 47.183 106.859 47.607L107.063 48.639C107.119 48.903 107.175 49.079 107.231 49.167C107.295 49.255 107.387 49.299 107.507 49.299C107.643 49.299 107.783 49.227 107.927 49.083L108.107 49.263C107.955 49.439 107.775 49.575 107.567 49.671C107.359 49.759 107.155 49.803 106.955 49.803ZM110.351 49.803C109.839 49.803 109.419 49.671 109.091 49.407C108.763 49.135 108.599 48.735 108.599 48.207C108.599 47.455 108.915 46.923 109.547 46.611C110.179 46.291 110.911 46.131 111.743 46.131H112.547V45.207C112.547 44.791 112.499 44.471 112.403 44.247C112.315 44.015 112.175 43.855 111.983 43.767C111.791 43.671 111.531 43.623 111.203 43.623C110.827 43.623 110.547 43.699 110.363 43.851C110.179 43.995 110.087 44.191 110.087 44.439C110.087 44.671 110.199 44.823 110.423 44.895C110.423 45.095 110.347 45.271 110.195 45.423C110.043 45.575 109.863 45.651 109.655 45.651C109.431 45.651 109.251 45.591 109.115 45.471C108.979 45.343 108.911 45.151 108.911 44.895C108.911 44.431 109.143 44.059 109.607 43.779C110.071 43.499 110.651 43.359 111.347 43.359C112.947 43.359 113.747 44.055 113.747 45.447V48.879C113.747 49.055 113.783 49.191 113.855 49.287C113.935 49.375 114.047 49.419 114.191 49.419C114.327 49.419 114.435 49.375 114.515 49.287C114.595 49.191 114.635 49.063 114.635 48.903H114.887C114.887 49.183 114.795 49.403 114.611 49.563C114.435 49.723 114.187 49.803 113.867 49.803C113.499 49.803 113.187 49.699 112.931 49.491C112.683 49.275 112.555 48.943 112.547 48.495C112.355 48.903 112.059 49.223 111.659 49.455C111.267 49.687 110.831 49.803 110.351 49.803ZM111.011 49.275C111.227 49.275 111.447 49.211 111.671 49.083C111.903 48.955 112.099 48.771 112.259 48.531C112.419 48.283 112.515 47.987 112.547 47.643V46.395H111.743C111.087 46.395 110.595 46.543 110.267 46.839C109.947 47.127 109.787 47.535 109.787 48.063C109.787 48.503 109.891 48.815 110.099 48.999C110.307 49.183 110.611 49.275 111.011 49.275Z" fill="#89323A"/>
</svg>
