<svg width="32" height="34" viewBox="0 0 32 34" fill="none" xmlns="http://www.w3.org/2000/svg">
<path d="M24.0503 15.4884V15.4642H22.9632C21.8438 16.3002 21.1541 17.5373 20.7351 18.633H21.8529C22.2681 17.5476 22.9495 16.324 24.0503 15.4884Z" fill="white"/>
<path d="M20.5837 30.453L21.242 21.0102C21.2484 20.955 21.2811 20.6947 21.3616 20.3096H20.2438C20.1632 20.6947 20.1304 20.9548 20.1242 21.0102L19.4659 30.453C19.4338 30.8716 19.4506 31.4223 19.7106 31.7033C19.9021 31.9101 20.2544 32.0063 20.8195 32.0063H21.9373C21.3722 32.0063 21.0199 31.9099 20.8284 31.7033C20.5685 31.4223 20.5516 30.8716 20.5837 30.453Z" fill="white"/>
<path d="M5.91771 18.2681H4.79988C4.03651 18.7989 3.38951 19.5034 2.88525 20.3255H4.00309C4.50734 19.5034 5.15434 18.7989 5.91771 18.2681Z" fill="white"/>
<path d="M6.85465 7.83663C6.85465 7.20606 7.36762 6.69309 7.99819 6.69309H10.2181C10.2264 6.69309 10.2344 6.69421 10.2426 6.69432C10.2294 6.07515 9.72256 5.57526 9.10026 5.57526H6.88036C6.24979 5.57526 5.73682 6.08823 5.73682 6.7188V16.5913H6.85465V7.83663V7.83663Z" fill="white"/>
<path d="M25.7268 15.4642V18.633H29.0373C28.6172 17.5357 27.9277 16.2973 26.8133 15.4642H25.7268V15.4642Z" fill="#FFA6BB"/>
<path d="M24.0356 3.75688C24.0356 3.22625 24.4672 2.79465 24.9979 2.79465H26.8591V2.63905C26.8591 2.10841 26.4275 1.67682 25.897 1.67682H23.8801C23.3493 1.67682 22.9177 2.10853 22.9177 2.63905V13.7873H24.0356V3.75688Z" fill="white"/>
<path d="M8.82861 20.3255H13.0386C12.5342 19.5034 11.8871 18.7989 11.1239 18.2681H8.82861V20.3255Z" fill="#FFA6BB"/>
<path d="M29.6529 21.0108C29.6465 20.9572 29.613 20.6965 29.531 20.3096H21.3617C21.2811 20.6947 21.2484 20.9548 21.2421 21.0102L20.5838 30.453C20.5517 30.8716 20.5685 31.4223 20.8285 31.7033C21.02 31.9101 21.3723 32.0063 21.9374 32.0063H28.9573C29.5223 32.0063 29.8747 31.9101 30.0662 31.7033C30.3262 31.4225 30.343 30.8716 30.3113 30.459L29.6529 21.0108Z" fill="#BA82AA"/>
<path d="M21.853 18.6329H24.0502V15.4883C22.9495 16.3239 22.2681 17.5475 21.853 18.6329Z" fill="#FFA6BB"/>
<path d="M24.0356 3.75685V13.7873H26.8593V2.79462H24.9981C24.4674 2.79462 24.0356 3.22632 24.0356 3.75685Z" fill="#BA82AA"/>
<path d="M31.9836 30.3363C31.9836 30.3363 31.323 20.8585 31.3221 20.8494C31.3044 20.6783 30.9052 17.0664 28.5288 14.7313C28.5332 14.6966 28.536 14.6615 28.536 14.6257V2.63898C28.536 1.1839 27.3522 0 25.8971 0H23.8802C22.425 0 21.2411 1.1839 21.2411 2.63898V14.6257C21.2411 14.6615 21.2441 14.6965 21.2485 14.7311C18.8718 17.0663 18.4727 20.6785 18.455 20.8494C18.4541 20.8584 17.794 30.3302 17.794 30.3302C17.7106 31.4149 17.9415 32.2601 18.4806 32.8423C19.259 33.6829 20.4338 33.6829 20.8198 33.6829H28.9575C29.3435 33.6829 30.5184 33.6829 31.2967 32.8423C31.8356 32.2602 32.0666 31.415 31.9836 30.3363ZM29.0374 18.6329H25.727V15.4641H26.8136C27.928 16.2971 28.6174 17.5357 29.0374 18.6329ZM22.9178 2.63898C22.9178 2.10834 23.3494 1.67675 23.8801 1.67675H25.8971C26.4276 1.67675 26.8592 2.10846 26.8592 2.63898V2.79458V13.7874H24.0356H22.9178V2.63898ZM22.9633 15.4641H24.0503V15.4884V18.6329H21.8531H20.7353C21.1542 17.5372 21.8439 16.3001 22.9633 15.4641ZM30.0662 31.7031C29.8747 31.9099 29.5224 32.0061 28.9573 32.0061H21.9374H20.8196C20.2545 32.0061 19.9022 31.9098 19.7107 31.7031C19.4507 31.4222 19.4338 30.8714 19.466 30.4528L20.1243 21.01C20.1307 20.9548 20.1634 20.6946 20.2439 20.3095H21.3617H29.5311C29.6129 20.6963 29.6466 20.9571 29.6529 21.0107L30.3114 30.4587C30.3431 30.8715 30.3263 31.4223 30.0662 31.7031Z" fill="#7F3960"/>
<path d="M7.99828 6.69305C7.36771 6.69305 6.85474 7.20603 6.85474 7.8366V16.5912H10.244V6.71876C10.244 6.71049 10.2429 6.70256 10.2428 6.69428C10.2346 6.69417 10.2266 6.69305 10.2183 6.69305H7.99828Z" fill="#BA82AA"/>
<path d="M4.00317 20.3255H7.152V18.2681H5.9178C5.15443 18.7989 4.50743 19.5034 4.00317 20.3255Z" fill="#FFA6BB"/>
<path d="M4.96185 31.3772C4.96185 31.2971 4.97738 31.2181 5.0079 31.1424C5.12919 30.8422 5.06681 30.4988 4.84738 30.2606C3.54287 28.8433 2.79459 26.8289 2.79459 24.7341C2.79459 23.7823 2.94673 22.8585 3.22909 22.0023H2.11126C1.82889 22.8585 1.67676 23.7824 1.67676 24.7341C1.67676 26.8289 2.42492 28.8433 3.72955 30.2606C3.94887 30.4988 4.01135 30.8422 3.89007 31.1424C3.85955 31.2181 3.84401 31.297 3.84401 31.3772C3.84401 31.724 4.12615 32.0061 4.47291 32.0061H5.59074C5.24399 32.0062 4.96185 31.724 4.96185 31.3772Z" fill="white"/>
<path d="M12.0801 31.3772C12.0801 31.2971 12.0645 31.2181 12.0339 31.1422C11.9126 30.842 11.9752 30.4988 12.1945 30.2606C13.499 28.8433 14.2472 26.8289 14.2472 24.7341C14.2472 23.7823 14.0951 22.8585 13.8127 22.0023H8.82874V29.3247C8.82874 29.8816 8.36775 30.1631 7.99037 30.1631C7.52736 30.1631 7.15199 29.7877 7.15199 29.3247V22.0023H3.22918C2.94681 22.8585 2.79468 23.7824 2.79468 24.7341C2.79468 26.8289 3.54284 28.8433 4.84747 30.2606C5.06678 30.4988 5.12927 30.8422 5.00799 31.1424C4.97747 31.2181 4.96193 31.297 4.96193 31.3772C4.96193 31.724 5.24407 32.0061 5.59082 32.0061H11.4511C11.7978 32.0062 12.0801 31.724 12.0801 31.3772Z" fill="#FFA6BB"/>
<path d="M15.2002 20.9195C15.185 20.8694 13.9393 17.9672 11.9206 16.7842V6.71879C11.9206 5.16366 10.6555 3.8985 9.10039 3.8985H6.88037C5.32525 3.8985 4.06008 5.16366 4.06008 6.71879V16.7464C1.74013 18.1206 0.738888 20.8694 0.723685 20.9194C0.254866 22.0974 0 23.395 0 24.7342C0 27.116 0.77477 29.339 2.19095 31.0472C2.17508 31.1561 2.16725 31.2663 2.16725 31.3773C2.16725 32.6487 3.20159 33.6829 4.4729 33.6829H11.451C12.7223 33.6829 13.7567 32.6486 13.7567 31.3773C13.7567 31.2663 13.7488 31.1561 13.7329 31.0472C15.149 29.339 15.9239 27.116 15.9239 24.7342C15.9238 23.395 15.669 22.0975 15.2002 20.9195ZM11.1238 18.2681C11.8871 18.7989 12.5343 19.5034 13.0385 20.3255H8.82865V18.2681H11.1238ZM5.73672 6.71879C5.73672 6.08822 6.24969 5.57525 6.88026 5.57525H9.10017C9.72246 5.57525 10.2293 6.07514 10.2425 6.69431C10.2427 6.70258 10.2437 6.71052 10.2437 6.71879V16.5913H6.85444H5.73661V6.71879H5.73672ZM4.79986 18.2681H5.9177H7.1519V20.3255H4.00307H2.88524C3.38949 19.5034 4.03649 18.7989 4.79986 18.2681ZM4.47279 32.0062C4.12592 32.0062 3.84389 31.724 3.84389 31.3773C3.84389 31.2973 3.85943 31.2182 3.88995 31.1425C4.01123 30.8423 3.94886 30.4989 3.72943 30.2607C2.42492 28.8434 1.67664 26.8291 1.67664 24.7342C1.67664 23.7824 1.82877 22.8586 2.11114 22.0024H3.22897H7.15178V29.3248C7.15178 29.7878 7.52715 30.1632 7.99016 30.1632C8.36754 30.1632 8.82853 29.8817 8.82853 29.3248V22.0023H13.8124C14.0946 22.8585 14.2469 23.7824 14.2469 24.7341C14.2469 26.8289 13.4987 28.8433 12.1942 30.2606C11.9749 30.4988 11.9124 30.842 12.0336 31.1422C12.0642 31.2181 12.0798 31.2971 12.0798 31.3772C12.0798 31.724 11.7976 32.0061 11.4507 32.0061H5.59062H4.47279V32.0062Z" fill="#7F3960"/>
</svg>
